# xmcd
#
# Track frame offsets:
# 150
# 16184
# 32273
# 46535
# 61214
# 77248
# 94140
# 109220
# 122499
# 140330
# 157708
# 171897
#
# Disc length: 2528 seconds
#
#
# Revision: 0
# Processed by: cddbd v1.5.1PL2 Copyright (c) Steve Scherf et al.
# Submitted via: FreeRIP 2.945 
#
DISCID=8209de0c
DTITLE=Lucas and Luan - Ninguém Segura
DYEAR=2006
DGENRE=Sertanejo
TTITLE0=Ressaca de Amor
TTITLE1=Ainda penso em nós
TTITLE2=Vem
TTITLE3=Ela tem que liberar
TTITLE4=Não foi ilusão
TTITLE5=Mais uma vez
TTITLE6=Ninguém segura
TTITLE7=Paixão do interior
TTITLE8=Dona dos meus sonhos (When I Die)
TTITLE9=Quem ama se encanta
TTITLE10=Eu quero beijo
TTITLE11=Minha filha meu anjo
EXTD=
EXTT0=
EXTT1=
EXTT2=
EXTT3=
EXTT4=
EXTT5=
EXTT6=
EXTT7=
EXTT8=
EXTT9=
EXTT10=
EXTT11=
PLAYORDER=
